<svg width="32" height="26" viewBox="0 0 32 26" fill="none" xmlns="http://www.w3.org/2000/svg">
    <path d="M0 4.79767C0 4.23662 0.454822 3.7818 1.01587 3.7818V3.7818C1.57692 3.7818 2.03175 4.23662 2.03175 4.79767V21.2023C2.03175 21.7633 1.57692 22.2182 1.01587 22.2182V22.2182C0.454822 22.2182 0 21.7633 0 21.2023V4.79767Z" fill="#FF7E1D"/>
    <path d="M26.6436 4.79767C26.6436 4.23662 27.0984 3.7818 27.6595 3.7818V3.7818C28.2205 3.7818 28.6753 4.23662 28.6753 4.79767V21.2023C28.6753 21.7633 28.2205 22.2182 27.6595 22.2182V22.2182C27.0984 22.2182 26.6436 21.7633 26.6436 21.2023V4.79767Z" fill="#FF7E1D"/>
    <path d="M23.7345 3C23.7345 1.34315 22.3914 0 20.7345 0H7.94086C6.284 0 4.94086 1.34315 4.94086 3V23C4.94086 24.6569 6.284 26 7.94086 26H20.7345C22.3914 26 23.7345 24.6569 23.7345 23V3Z" fill="#FF7E1D"/>
</svg>
