<svg width="464" height="191" viewBox="0 0 464 191" fill="none" xmlns="http://www.w3.org/2000/svg">
    <path d="M0 60.8176C0 58.4331 1.93299 56.5001 4.31746 56.5001C6.70193 56.5001 8.63492 58.4331 8.63492 60.8176V130.183C8.63492 132.567 6.70193 134.5 4.31746 134.5C1.93299 134.5 0 132.567 0 130.183V60.8176Z" fill="#FF7E1D"/>
    <path d="M113.235 60.8172C113.235 58.4327 115.168 56.4998 117.553 56.4998C119.937 56.4998 121.87 58.4327 121.87 60.8172V130.182C121.87 132.567 119.937 134.5 117.553 134.5C115.168 134.5 113.235 132.567 113.235 130.182V60.8172Z" fill="#FF7E1D"/>
    <path d="M100.872 50.5C100.872 44.9771 96.3945 40.5 90.8716 40.5H30.9986C25.4757 40.5 20.9986 44.9772 20.9986 50.5V140.5C20.9986 146.023 25.4757 150.5 30.9986 150.5H90.8716C96.3945 150.5 100.872 146.023 100.872 140.5V50.5Z" fill="#FF7E1D"/>
    <path d="M158.413 124.092C155.293 124.092 152.017 123.702 148.585 122.922C145.153 122.142 142.423 121.258 140.395 120.27L141.487 110.676C148.247 113.9 154.357 115.512 159.817 115.512C162.885 115.512 165.277 114.94 166.993 113.796C168.709 112.652 169.567 110.936 169.567 108.648C169.567 106.88 169.099 105.45 168.163 104.358C167.279 103.266 165.953 102.33 164.185 101.55C162.417 100.718 159.791 99.73 156.307 98.586C152.927 97.494 150.119 96.324 147.883 95.076C145.647 93.776 143.853 92.138 142.501 90.162C141.201 88.134 140.551 85.612 140.551 82.596C140.551 78.02 142.241 74.328 145.621 71.52C149.053 68.712 153.941 67.308 160.285 67.308C163.405 67.308 166.473 67.646 169.489 68.322C172.505 68.998 175.183 69.856 177.523 70.896L176.587 80.256C173.467 78.748 170.555 77.63 167.851 76.902C165.199 76.174 162.495 75.81 159.739 75.81C156.619 75.81 154.201 76.356 152.485 77.448C150.769 78.488 149.911 80.1 149.911 82.284C149.911 83.844 150.327 85.144 151.159 86.184C152.043 87.172 153.239 88.004 154.747 88.68C156.307 89.356 158.543 90.162 161.455 91.098C167.695 93.022 172.271 95.284 175.183 97.884C178.147 100.432 179.629 103.942 179.629 108.414C179.629 112.834 178.017 116.552 174.793 119.568C171.569 122.584 166.109 124.092 158.413 124.092ZM198.377 123.78C194.997 123.78 192.423 122.818 190.655 120.894C188.939 118.97 188.081 116.656 188.081 113.952V91.332H182.231L183.011 84.312H188.081V75.42L196.817 74.484V84.312H205.943V91.332H196.817V109.896C196.817 112.184 196.947 113.77 197.207 114.654C197.467 115.486 198.013 116.032 198.845 116.292C199.729 116.552 201.289 116.682 203.525 116.682H205.865L205.085 123.78H198.377ZM229.331 123.78C225.327 123.78 221.843 122.896 218.879 121.128C215.915 119.308 213.627 116.864 212.015 113.796C210.455 110.728 209.675 107.348 209.675 103.656C209.675 99.964 210.455 96.584 212.015 93.516C213.627 90.448 215.915 88.03 218.879 86.262C221.843 84.442 225.327 83.532 229.331 83.532C233.387 83.532 236.897 84.442 239.861 86.262C242.825 88.03 245.087 90.448 246.647 93.516C248.207 96.584 248.987 99.964 248.987 103.656C248.987 107.348 248.207 110.728 246.647 113.796C245.087 116.864 242.825 119.308 239.861 121.128C236.897 122.896 233.387 123.78 229.331 123.78ZM229.331 116.448C232.711 116.448 235.337 115.304 237.209 113.016C239.133 110.728 240.095 107.608 240.095 103.656C240.095 99.756 239.133 96.662 237.209 94.374C235.337 92.034 232.711 90.864 229.331 90.864C225.951 90.864 223.325 92.034 221.453 94.374C219.581 96.662 218.645 99.756 218.645 103.656C218.645 107.608 219.581 110.728 221.453 113.016C223.325 115.304 225.951 116.448 229.331 116.448ZM255.966 84.312H263.844L264.312 89.226C265.716 87.51 267.328 86.132 269.148 85.092C270.968 84.052 272.866 83.532 274.842 83.532C275.362 83.532 275.934 83.584 276.558 83.688L275.856 92.58C275.024 92.32 274.036 92.19 272.892 92.19C271.176 92.19 269.564 92.606 268.056 93.438C266.548 94.218 265.482 95.154 264.858 96.246V123H255.966V84.312ZM293.109 120.738L276.963 84.312H286.635L297.321 110.598L307.695 84.312H317.445L293.343 141.876H284.373L293.109 120.738ZM324.808 91.332H318.802L319.738 84.312H324.808V75.732C324.808 72.248 325.796 69.518 327.772 67.542C329.748 65.514 332.556 64.5 336.196 64.5C338.536 64.5 340.616 64.76 342.436 65.28L341.5 72.456C340.408 72.092 339.29 71.91 338.146 71.91C335.026 71.91 333.466 73.6 333.466 76.98V84.312H342.67V91.332H333.466V123H324.808V91.332ZM358.497 123.78C355.169 123.78 352.673 122.87 351.009 121.05C349.397 119.178 348.591 116.812 348.591 113.952V64.5H357.249V109.896C357.249 112.08 357.379 113.64 357.639 114.576C357.899 115.46 358.367 116.032 359.043 116.292C359.719 116.552 360.863 116.682 362.475 116.682L361.617 123.78H358.497ZM385.255 123.78C381.251 123.78 377.767 122.896 374.803 121.128C371.839 119.308 369.551 116.864 367.939 113.796C366.379 110.728 365.599 107.348 365.599 103.656C365.599 99.964 366.379 96.584 367.939 93.516C369.551 90.448 371.839 88.03 374.803 86.262C377.767 84.442 381.251 83.532 385.255 83.532C389.311 83.532 392.821 84.442 395.785 86.262C398.749 88.03 401.011 90.448 402.571 93.516C404.131 96.584 404.911 99.964 404.911 103.656C404.911 107.348 404.131 110.728 402.571 113.796C401.011 116.864 398.749 119.308 395.785 121.128C392.821 122.896 389.311 123.78 385.255 123.78ZM385.255 116.448C388.635 116.448 391.261 115.304 393.133 113.016C395.057 110.728 396.019 107.608 396.019 103.656C396.019 99.756 395.057 96.662 393.133 94.374C391.261 92.034 388.635 90.864 385.255 90.864C381.875 90.864 379.249 92.034 377.377 94.374C375.505 96.662 374.569 99.756 374.569 103.656C374.569 107.608 375.505 110.728 377.377 113.016C379.249 115.304 381.875 116.448 385.255 116.448ZM407.689 84.312H416.659L423.601 112.704L431.245 85.17H439.045L446.611 112.704L453.631 84.312H462.601L451.213 123H443.179L435.145 96.558L427.111 123H419.077L407.689 84.312Z" fill="black"/>
</svg>
