<svg width="500" height="201" viewBox="0 0 500 201" fill="none" xmlns="http://www.w3.org/2000/svg">
    <path d="M0 61.0094C0 58.6249 1.93299 56.6919 4.31746 56.6919V56.6919C6.70193 56.6919 8.63492 58.6249 8.63492 61.0094V130.374C8.63492 132.759 6.70193 134.692 4.31746 134.692V134.692C1.93299 134.692 0 132.759 0 130.374V61.0094Z" fill="#FF7E1D"/>
    <path d="M113.235 61.009C113.235 58.6245 115.168 56.6915 117.553 56.6915V56.6915C119.937 56.6915 121.87 58.6245 121.87 61.009V130.374C121.87 132.759 119.937 134.692 117.553 134.692V134.692C115.168 134.692 113.235 132.759 113.235 130.374V61.009Z" fill="#FF7E1D"/>
    <path d="M100.872 50.6918C100.872 45.1689 96.3945 40.6918 90.8716 40.6918H30.9986C25.4757 40.6918 20.9986 45.1689 20.9986 50.6918V140.692C20.9986 146.215 25.4757 150.692 30.9986 150.692H90.8716C96.3945 150.692 100.872 146.215 100.872 140.692V50.6918Z" fill="#FF7E1D"/>
    <path d="M158.413 124.784C155.293 124.784 152.017 124.394 148.585 123.614C145.153 122.834 142.423 121.95 140.395 120.962L141.487 111.368C148.247 114.592 154.357 116.204 159.817 116.204C162.885 116.204 165.277 115.632 166.993 114.488C168.709 113.344 169.567 111.628 169.567 109.34C169.567 107.572 169.099 106.142 168.163 105.05C167.279 103.958 165.953 103.022 164.185 102.242C162.417 101.41 159.791 100.422 156.307 99.2778C152.927 98.1858 150.119 97.0158 147.883 95.7678C145.647 94.4678 143.853 92.8298 142.501 90.8538C141.201 88.8258 140.551 86.3038 140.551 83.2878C140.551 78.7118 142.241 75.0198 145.621 72.2118C149.053 69.4038 153.941 67.9998 160.285 67.9998C163.405 67.9998 166.473 68.3378 169.489 69.0138C172.505 69.6898 175.183 70.5478 177.523 71.5878L176.587 80.9478C173.467 79.4398 170.555 78.3218 167.851 77.5938C165.199 76.8658 162.495 76.5018 159.739 76.5018C156.619 76.5018 154.201 77.0478 152.485 78.1398C150.769 79.1798 149.911 80.7918 149.911 82.9758C149.911 84.5358 150.327 85.8358 151.159 86.8758C152.043 87.8638 153.239 88.6958 154.747 89.3718C156.307 90.0478 158.543 90.8538 161.455 91.7898C167.695 93.7138 172.271 95.9758 175.183 98.5758C178.147 101.124 179.629 104.634 179.629 109.106C179.629 113.526 178.017 117.244 174.793 120.26C171.569 123.276 166.109 124.784 158.413 124.784ZM198.377 124.472C194.997 124.472 192.423 123.51 190.655 121.586C188.939 119.662 188.081 117.348 188.081 114.644V92.0238H182.231L183.011 85.0038H188.081V76.1118L196.817 75.1758V85.0038H205.943V92.0238H196.817V110.588C196.817 112.876 196.947 114.462 197.207 115.346C197.467 116.178 198.013 116.724 198.845 116.984C199.729 117.244 201.289 117.374 203.525 117.374H205.865L205.085 124.472H198.377ZM229.331 124.472C225.327 124.472 221.843 123.588 218.879 121.82C215.915 120 213.627 117.556 212.015 114.488C210.455 111.42 209.675 108.04 209.675 104.348C209.675 100.656 210.455 97.2758 212.015 94.2078C213.627 91.1398 215.915 88.7218 218.879 86.9538C221.843 85.1338 225.327 84.2238 229.331 84.2238C233.387 84.2238 236.897 85.1338 239.861 86.9538C242.825 88.7218 245.087 91.1398 246.647 94.2078C248.207 97.2758 248.987 100.656 248.987 104.348C248.987 108.04 248.207 111.42 246.647 114.488C245.087 117.556 242.825 120 239.861 121.82C236.897 123.588 233.387 124.472 229.331 124.472ZM229.331 117.14C232.711 117.14 235.337 115.996 237.209 113.708C239.133 111.42 240.095 108.3 240.095 104.348C240.095 100.448 239.133 97.3538 237.209 95.0658C235.337 92.7258 232.711 91.5558 229.331 91.5558C225.951 91.5558 223.325 92.7258 221.453 95.0658C219.581 97.3538 218.645 100.448 218.645 104.348C218.645 108.3 219.581 111.42 221.453 113.708C223.325 115.996 225.951 117.14 229.331 117.14ZM255.966 85.0038H263.844L264.312 89.9178C265.716 88.2018 267.328 86.8238 269.148 85.7838C270.968 84.7438 272.866 84.2238 274.842 84.2238C275.362 84.2238 275.934 84.2758 276.558 84.3798L275.856 93.2718C275.024 93.0118 274.036 92.8818 272.892 92.8818C271.176 92.8818 269.564 93.2978 268.056 94.1298C266.548 94.9098 265.482 95.8458 264.858 96.9378V123.692H255.966V85.0038ZM293.109 121.43L276.963 85.0038H286.635L297.321 111.29L307.695 85.0038H317.445L293.343 142.568H284.373L293.109 121.43ZM324.808 92.0238H318.802L319.738 85.0038H324.808V76.4238C324.808 72.9398 325.796 70.2098 327.772 68.2338C329.748 66.2058 332.556 65.1918 336.196 65.1918C338.536 65.1918 340.616 65.4518 342.436 65.9718L341.5 73.1478C340.408 72.7838 339.29 72.6018 338.146 72.6018C335.026 72.6018 333.466 74.2918 333.466 77.6718V85.0038H342.67V92.0238H333.466V123.692H324.808V92.0238ZM358.497 124.472C355.169 124.472 352.673 123.562 351.009 121.742C349.397 119.87 348.591 117.504 348.591 114.644V65.1918H357.249V110.588C357.249 112.772 357.379 114.332 357.639 115.268C357.899 116.152 358.367 116.724 359.043 116.984C359.719 117.244 360.863 117.374 362.475 117.374L361.617 124.472H358.497ZM385.255 124.472C381.251 124.472 377.767 123.588 374.803 121.82C371.839 120 369.551 117.556 367.939 114.488C366.379 111.42 365.599 108.04 365.599 104.348C365.599 100.656 366.379 97.2758 367.939 94.2078C369.551 91.1398 371.839 88.7218 374.803 86.9538C377.767 85.1338 381.251 84.2238 385.255 84.2238C389.311 84.2238 392.821 85.1338 395.785 86.9538C398.749 88.7218 401.011 91.1398 402.571 94.2078C404.131 97.2758 404.911 100.656 404.911 104.348C404.911 108.04 404.131 111.42 402.571 114.488C401.011 117.556 398.749 120 395.785 121.82C392.821 123.588 389.311 124.472 385.255 124.472ZM385.255 117.14C388.635 117.14 391.261 115.996 393.133 113.708C395.057 111.42 396.019 108.3 396.019 104.348C396.019 100.448 395.057 97.3538 393.133 95.0658C391.261 92.7258 388.635 91.5558 385.255 91.5558C381.875 91.5558 379.249 92.7258 377.377 95.0658C375.505 97.3538 374.569 100.448 374.569 104.348C374.569 108.3 375.505 111.42 377.377 113.708C379.249 115.996 381.875 117.14 385.255 117.14ZM407.689 85.0038H416.659L423.601 113.396L431.245 85.8618H439.045L446.611 113.396L453.631 85.0038H462.601L451.213 123.692H443.179L435.145 97.2498L427.111 123.692H419.077L407.689 85.0038Z" fill="black"/>
</svg>
