<?xml version="1.0" encoding="utf-8"?>
<svg version="1.1" id="Layer_1" xmlns="http://www.w3.org/2000/svg" xmlns:xlink="http://www.w3.org/1999/xlink" x="0px" y="0px"
	 viewBox="0 0 150 60" style="enable-background:new 0 0 150 60;" xml:space="preserve">
<style type="text/css">
	.st0{fill:#FF7E1D;}
</style>
<g id="Home">
	<g id="Group-32">
		<g id="Group-21" transform="translate(61.000000, 0.000000)">
			<path id="Path-2" class="st0" d="M-55.6,21c-0.2,1.5-0.2,1.9,0,2.1c0.4,0.3,1.1,0.4,4.3,0.9c4.1,0.6,7.2,1.1,11.5,2.2
				c0.7,0.2,1.1,0.9,0.9,1.5c-0.2,0.7-0.9,1.1-1.5,0.9c-4.2-1-7.2-1.6-11.2-2.1c-3.9-0.5-4.5-0.6-5.4-1.3c-1.3-0.9-1.5-2.1-1.1-4.5
				c0,0.1,1.1-6,1.5-8.8c0.1-0.7,0.7-1.2,1.4-1.1c0.7,0.1,1.2,0.7,1.1,1.4C-54.5,15-55.6,21.2-55.6,21z"/>
			<path id="Path-3" class="st0" d="M29.6,18.2c0.5,0.5,0.6,1.3,0.1,1.8s-1.3,0.6-1.8,0.1C1.3-3-20.4-1.8-48.9,20.2
				c-0.6,0.4-1.4,0.3-1.8-0.2c-0.4-0.6-0.3-1.4,0.2-1.8C-21.1-4.5,2-5.8,29.6,18.2z"/>
		</g>
		<path id="Try-it-out" class="st0" d="M73.3,31.8c1,0,1.6,0.2,1.8,0.7v0.3c0,1-2,1.7-5.9,2.1l-1.7-0.1l-0.4,0.1
			c-0.2,1.6-0.3,3-0.3,4.2l0.4,7.5v2.2c0,0.5-0.1,0.8-0.3,0.9c-0.8,0.3-1.4,0.4-1.9,0.4c-0.6-1.9-0.9-4.3-0.9-7.3
			C64,41.7,64,40.7,64,39.7l0.1-4.3c-0.4-0.2-1-0.3-1.7-0.3l-4.1,0.1h-0.7c-1.2,0-1.8-0.2-1.8-0.6v-0.3c0-0.5,0.4-1,1.1-1.5
			c2.1-0.4,4.6-0.5,7.6-0.5c2.1,0,4.6-0.2,7.4-0.6L73.3,31.8z M80.9,38.2c0.8,0,1.3,0.2,1.3,0.6c0.1,0.4,0.2,0.7,0.4,0.9v0.1
			c-2.4,1.2-4.2,3.2-5.2,5.9c-0.5,1.5-0.8,2.6-0.8,3.5c-0.8,0.4-1.3,0.6-1.6,0.6c0-0.3-0.3-0.6-1-0.9c0-0.5-0.4-2.3-1.1-5.5
			c-0.2-0.7-0.3-1.3-0.3-2v-0.6c0.1-0.4,0.5-0.7,1.2-0.8h0.1c0.8,0,1.3,0.6,1.5,1.7l-0.1,0.7c0.6-0.5,1.5-1.5,2.7-2.8
			c1-0.9,1.9-1.4,2.7-1.4H80.9z M91.2,35.5c0.4,0,0.7,0.2,0.9,0.5c0.3,5,0.4,8.6,0.4,10.8v0.3l0.5,6.4c0,2.7-1.1,4.5-3.2,5.4
			c-0.5,0.1-1,0.2-1.4,0.2c-1.7,0-3.5-1-5.3-3.1c-0.4-0.6-0.6-1.1-0.6-1.6c0.3-0.3,0.7-0.5,1-0.5s0.8,0.3,1.7,1
			c0.1,0.1,0.4,0.1,0.7,0.2l2,1.2c0.3,0.1,0.5,0.1,0.7,0.1h0.1c0.8,0,1.4-0.8,1.7-2.3c0.1-0.8,0.2-1.9,0.2-3.3
			c0-2.3-0.3-4.8-0.8-7.4c-0.5,0.5-1.2,1.5-2.1,3.1c-0.8,0.9-1.5,1.4-1.8,1.4c-0.4,0.2-1,0.3-1.7,0.3H84c-0.4,0-0.8-0.6-1.2-1.7
			c-0.1-0.6-0.2-1.3-0.2-2c0-1.7,0.3-3.7,1-6c0.3-0.7,0.7-1,1.1-1H85c0.3,0,0.7,0.2,1.1,0.5v0.1c0,0.7-0.3,2.1-0.8,4.2
			c-0.2,0.6-0.3,1.3-0.3,2.1v0.7h0.1c0.4,0,0.9-0.4,1.6-1.3c0.1,0,0.3-0.3,0.5-0.9c1.5-2.8,2.2-4.5,2.2-5.2c0.1-0.4,0.2-0.8,0.2-1.3
			v-0.1c0.3-0.3,0.6-0.6,0.8-1h0.8V35.5z M102.2,33.5c0.7,0,1.1,0.2,1.2,0.5l0.1,0.5c0,0.5-0.6,0.9-1.7,1.1h-0.3
			c-0.8-0.1-1.2-0.3-1.2-0.7v-0.2v-0.2c0.2-0.7,0.7-1,1.6-1C101.9,33.5,102.2,33.5,102.2,33.5z M102.9,38.1c0.3,1.8,0.5,3.7,0.5,5.7
			V45l-0.1,4.4c-0.2,0.1-0.6,0.3-1,0.4L102,50l0,0c-0.2,0-0.5-0.2-0.7-0.5c0,0.2,0,0.3-0.1,0.3c-0.4-0.4-0.6-1.2-0.6-2.4l0.4-5
			c-0.1-0.7-0.1-1.7-0.1-3c0-1.1,0.4-1.7,1.2-1.7C102.6,37.7,102.9,37.8,102.9,38.1z M109,30.2c0.6,0,1.1,0.3,1.3,0.9
			c-0.5,3.3-0.8,6-0.8,7.9v1.7h0.6c1.2,0,2.5-0.2,4-0.6h0.7c0.6,0,0.9,0.3,0.9,0.9c0,0.9-0.6,1.4-1.8,1.6c-0.5,0.1-1.9,0.3-4.1,0.5
			c0,0.1-0.1,0.1-0.3,0.1l0.3,2.7c0,0.4-0.1,0.7-0.3,1c0.2,0.2,0.3,0.6,0.3,1v0.4c0,0.9-0.1,1.4-0.3,1.5l-1.1-0.1
			c-0.1,0-0.3,0.1-0.4,0.3c-0.7-0.3-1.1-1.5-1.1-3.5c0-1.8-0.1-2.8-0.3-2.8c-0.3-0.3-1.1-0.4-2.6-0.4c-0.7,0-1.1-0.4-1.4-1.1v-0.1
			c0.3-0.7,1.1-1.1,2.3-1.1c0.6,0,0.9,0.1,0.9,0.1c0.2,0,0.4-0.2,0.5-0.5l0.1-0.1h0.4l-0.1-0.5c0-2.4,0.2-5.4,0.7-9.1
			c0.4-0.5,0.8-0.7,1.4-0.7C108.8,30.2,109,30.2,109,30.2z M125.6,40.2c1.4,0,2.3,0.8,2.9,2.5c0.2,0.5,0.2,1,0.2,1.5v0.4
			c0,1.9-0.7,3.5-2.2,4.7c-0.8,0.5-1.5,0.7-2.1,0.7h-0.1c-1.4,0-2.5-0.9-3.1-2.8c-0.1-0.5-0.2-1-0.2-1.5v-0.2c0-1.2,0.2-2.4,0.5-3.5
			c0.1-0.1,0.4-0.3,1-0.5c0.1-0.1,0.4-0.4,0.7-0.9C123.7,40.4,124.4,40.2,125.6,40.2L125.6,40.2z M123.6,43.9l-0.1,1.9
			c0.1,1.1,0.3,1.6,0.7,1.6c0.6-0.3,1-0.7,1.4-1.3c0.3-0.6,0.4-1.1,0.4-1.6v-0.2c0-0.8-0.3-1.5-0.9-2c-0.4,0-0.9,0.3-1.2,0.9
			c-0.2,0.2-0.3,0.3-0.4,0.3L123.6,43.9z M135.8,40.9c0.5,0,0.9,0.2,1.2,0.7c0.2,2.5,0.6,4.5,1.2,6.2c0.4,0.4,0.6,0.9,0.6,1.3v0.3
			c0,0.2-0.1,0.4-0.3,0.5H138c-1,0-1.9-1-2.5-2.9l-0.3-0.4c-1.2,1.3-2.1,2.2-2.6,2.5l-0.5-0.1c-0.1,0-0.5,0.1-1.1,0.4h-0.2
			c-0.6,0-0.9-0.6-1.1-1.9v-0.6v-0.4c0-2,0.4-3.6,1.3-4.9c0.3-0.4,0.6-0.5,0.9-0.5c0.4,0,0.8,0.3,1.2,0.8c0,0.4-0.2,1.4-0.7,2.9
			c-0.1,0.3-0.1,0.6-0.1,1.1v0.2c0.6-0.3,1.2-1.1,1.7-2.5c0.7-1.7,1.1-2.5,1.4-2.5L135.8,40.9z M144.2,30.2c0.6,0,1.1,0.3,1.3,0.9
			c-0.5,3.3-0.8,6-0.8,7.9v1.7h0.6c1.2,0,2.5-0.2,4-0.6h0.7c0.6,0,0.9,0.3,0.9,0.9c0,0.9-0.6,1.4-1.8,1.6c-0.5,0.1-1.9,0.3-4.1,0.5
			c0,0.1-0.1,0.1-0.3,0.1l0.3,2.7c0,0.4-0.1,0.7-0.3,1c0.2,0.2,0.3,0.6,0.3,1v0.4c0,0.9-0.1,1.4-0.3,1.5l-1.1-0.1
			c-0.1,0-0.3,0.1-0.4,0.3c-0.7-0.3-1.1-1.5-1.1-3.5c0-1.8-0.1-2.8-0.3-2.8c-0.3-0.3-1.1-0.4-2.6-0.4c-0.7,0-1.1-0.4-1.4-1.1v-0.1
			c0.3-0.7,1.1-1.1,2.3-1.1c0.6,0,0.9,0.1,0.9,0.1c0.2,0,0.4-0.2,0.5-0.5l0.1-0.1h0.4l-0.1-0.5c0-2.4,0.2-5.4,0.7-9.1
			c0.4-0.5,0.8-0.7,1.4-0.7C144,30.2,144.2,30.2,144.2,30.2z"/>
	</g>
</g>
</svg>
